# AST/ASF file generated using VICON BodyLanguage
# -----------------------------------------------
:version 1.10
:name VICON
:units
  mass 1.0
  length 0.45
  angle deg
:documentation
   .ast/.asf automatically generated from VICON data using
   VICON BodyBuilder and BodyLanguage model FoxedUp or BRILLIANT.MOD
:root
   order TX TY TZ RX RY RZ
   axis XYZ
   position 0 0 0  
   orientation 0 0 0 
:bonedata
  begin
     id 1 
     name lhipjoint
     direction 0.660183 -0.676772 0.325788 
     length 2.75133 
     axis 0 0 0  XYZ
  end
  begin
     id 2 
     name lfemur
     direction 0.34202 -0.939693 0  
     length 7.70317  
     axis 0 0 20  XYZ
    dof rx ry rz
    limits (-160.0 20.0)
           (-70.0 70.0)
           (-60.0 70.0)
  end
  begin
     id 3 
     name ltibia
     direction 0.342105 -0.939662 0   
     length 7.18701   
     axis 0 0 20   XYZ
    dof rx
    limits (-10.0 170.0)
  end
  begin
     id 4 
     name lfoot
     direction 0.14163 -0.389126 0.910232   
     length 2.41719   
     axis -90 7.62852e-016 20   XYZ
    dof rx rz
    limits (-45.0 90.0)
           (-70.0 20.0)
  end
  begin
     id 5 
     name ltoes
     direction 1.53533e-011 -4.21926e-011 1   
     length 1.18611   
     axis -90 7.62852e-016 20   XYZ
    dof rx
    limits (-90.0 20.0)
  end
  begin
     id 6 
     name rhipjoint
     direction -0.6658 -0.67229 0.323631   
     length 2.76968  
     axis 0 0 0  XYZ 
  end
  begin
     id 7 
     name rfemur
     direction -0.34202 -0.939693 0   
     length 7.92547   
     axis 0 0 -20   XYZ
    dof rx ry rz
    limits (-160.0 20.0)
           (-70.0 70.0)
           (-70.0 60.0)
  end
  begin
     id 8 
     name rtibia
     direction -0.342022 -0.939692 0   
     length 7.22641   
     axis 0 0 -20   XYZ
    dof rx
    limits (-10.0 170.0)
 end
 begin
     id 9 
     name rfoot
     direction -0.105675 -0.29034 0.951071   
     length 2.48149  
     axis -90 -7.62852e-016 -20   XYZ
    dof rx rz
    limits (-45.0 90.0)
           (-20.0 70.0)
  end
  begin
     id 10 
     name rtoes
     direction -1.5349e-011 -4.21859e-011 1   
     length 1.23343   
     axis -90 -7.62852e-016 -20   XYZ
    dof rx
    limits (-90.0 20.0)
  end
  begin
     id 11 
     name lowerback
     direction 0.0104173 0.993624 -0.112266   
     length 2.00527   
     axis 0 0 0   XYZ
    dof rx ry rz
    limits (-20.0 45.0)
           (-30.0 30.0)
           (-30.0 30.0)
  end
  begin
     id 12 
     name upperback
     direction 0.00733149 0.999856 -0.0152913   
     length 2.01385   
     axis 0 0 0   XYZ
    dof rx ry rz
    limits (-20.0 45.0)
           (-30.0 30.0)
           (-30.0 30.0)
  end
  begin
     id 13 
     name thorax
     direction 0.0026304 0.999318 0.036841   
     length 2.03734   
     axis 0 0 0   XYZ
    dof rx ry rz
    limits (-20.0 45.0)
           (-30.0 30.0)
           (-30.0 30.0)
  end
  begin
     id 14 
     name lowerneck
     direction 0.0293154 0.998757 0.0403082   
     length 1.65303   
     axis 0 0 0   XYZ
    dof rx ry rz
    limits (-20.0 45.0)
           (-30.0 30.0)
           (-30.0 30.0)
  end
  begin
     id 15 
     name upperneck
     direction -0.0376619 0.998184 -0.0470083   
     length 1.60926   
     axis 0 0 0   XYZ
    dof rx ry rz
    limits (-20.0 45.0)
           (-30.0 30.0)
           (-30.0 30.0)
  end
  begin
     id 16
     name head
     direction -0.0170133 0.999635 -0.0209778  
     length 1.73625  
     axis 0 0 0   XYZ
    dof rx ry rz
    limits (-20.0 45.0)
           (-30.0 30.0)
           (-30.0 30.0)
  end
  begin
     id 17 
     name lclavicle
     direction 0.919857 0.39181 -0.0186333  
     length 3.75313  
     axis 0 0 0   XYZ
    dof ry rz
    limits (-20.0 10.0)
           (0.0 20.0)
  end
  begin
     id 18 
     name lhumerus
     direction 1 -4.48988e-011 1.44029e-027   
     length 5.49313   
     axis 180 -30 -90   XYZ
    dof rx ry rz
    limits (-60.0 90.0)
           (-90.0 90.0)
           (-90.0 90.0)
  end
  begin
     id 19
     name lradius
     direction 1 -4.48924e-011 7.46281e-027   
     length 3.29037   
     axis 180 -30 -90   XYZ
    dof rx
    limits (-10.0 170.0)
  end
  begin
     id 20
     name lwrist
     direction 1 -4.48955e-011 2.19879e-026   
     length 1.64519   
     axis -1.34358e-014 90 90   XYZ
    dof ry
    limits (-180.0 0.0)
 end
  begin
     id 21 
     name lhand
     direction 1 -4.48978e-011 4.39747e-026   
     length 0.729656   
     axis -2.80598e-014 90 90   XYZ
    dof rx rz
    limits (-90.0 90.0)
           (-45.0 45.0)
  end
  begin
     id 22 
     name lfingers
     direction 1 -4.49071e-011 8.79411e-026   
     length 0.588268   
     axis -5.61193e-014 90 90   XYZ
    dof rx
    limits (0.0 90.0)
  end
  begin
     id 23
     name lthumb
     direction 0.707107 -6.34817e-011 0.707107   
     length 0.844638   
     axis -90 45 -9.86923e-015   XYZ
    dof rx rz
    limits (-45.0 45.0)
           (-45.0 45.0)
  end
  begin
     id 24 
     name rclavicle
     direction -0.919898 0.388279 0.0550233   
     length 3.7171  
     axis 0 0 0   XYZ 
    dof ry rz
    limits (-10.0 20.0)
           (-20.0 0.0)
  end
  begin
     id 25 
     name rhumerus
     direction -1 -4.48968e-011 9.98372e-028  
     length 5.23684   
     axis 180 30 90   XYZ
    dof rx ry rz
    limits (-90.0 60.0)
           (-90.0 90.0)
           (-90.0 90.0)
  end
  begin
     id 26 
     name rradius
     direction -1 -4.48956e-011 1.01023e-026   
     length 3.38251   
     axis 180 30 90   XYZ
    dof rx
    limits (-10.0 170.0)
  end
  begin
     id 27 
     name rwrist
     direction -1 -4.4892e-011 2.19886e-026   
     length 1.69126   
     axis -1.34358e-014 -90 -90   XYZ
    dof ry
    limits (-180.0 0.0)
  end
  begin
     id 28
     name rhand
     direction -1 -4.49024e-011 4.39727e-026   
     length 0.691454   
     axis -2.80598e-014 -90 -90   XYZ
    dof rx rz
    limits (-90.0 90.0)
           (-45.0 45.0)
  end
  begin
     id 29
     name rfingers
     direction -1 -4.49097e-011 8.79388e-026   
     length 0.557468   
     axis -5.61193e-014 -90 -90   XYZ
    dof rx
    limits (0.0 90.0)
  end
  begin
     id 30
     name rthumb
     direction -0.707107 -6.34938e-011 0.707107   
     length 0.800416   
     axis -90 -45 9.86923e-015   XYZ
    dof rx rz
    limits (-45.0 45.0)
           (-45.0 45.0)
  end
:hierarchy
  begin
    root lhipjoint rhipjoint lowerback
    lhipjoint lfemur
    lfemur ltibia
    ltibia lfoot
    lfoot ltoes
    rhipjoint rfemur
    rfemur rtibia
    rtibia rfoot
    rfoot rtoes
    lowerback upperback
    upperback thorax
    thorax lowerneck lclavicle rclavicle
    lowerneck upperneck
    upperneck head
    lclavicle lhumerus
    lhumerus lradius
    lradius lwrist
    lwrist lhand lthumb
    lhand lfingers
    rclavicle rhumerus
    rhumerus rradius
    rradius rwrist
    rwrist rhand rthumb
    rhand rfingers
  end

#!OML:ASF H:\BabyWalks\Project 1\Capture day 1\Session 1\baby.ASF
:FULLY-SPECIFIED
:DEGREES
276
root -37.8925 17.6929 -2.63331 -16.1548 81.9294 -20.8954
lowerback 17.0422 -0.688178 1.02536
upperback 7.3285 -0.270664 2.04857
thorax -1.73277 0.0228076 1.61743
lowerneck -1.77405 2.50832 3.084
upperneck -7.13816 3.1698 -5.46985
head -1.80413 1.66315 -2.30626
rclavicle -5.66536e-015 -5.96354e-015
rhumerus -49.56 24.7405 -87.9421
rradius 41.7767
rwrist -5.87926
rhand -0.277168 -14.0495
rfingers 7.12502
rthumb 25.3249 -42.3882
lclavicle -5.66536e-015 -5.96354e-015
lhumerus -48.2229 -3.89836 83.0846
lradius 47.8649
lwrist 9.77216
lhand 2.5227 12.0073
lfingers 7.12502
lthumb 28.0044 39.938
rfemur -1.1994 11.1009 24.5921
rtibia 17.763
rfoot -17.7188 -7.06053
rtoes -12.8492
lfemur -21.8146 -3.08172 -11.655
ltibia 30.6244
lfoot -16.5864 -9.26037
ltoes -2.50718
277
root -37.8914 17.6923 -2.63231 -16.1467 81.9395 -20.8723
lowerback 17.0224 -0.688743 1.03362
upperback 7.33293 -0.270976 2.04121
thorax -1.71785 0.0229157 1.60489
lowerneck -1.77027 2.5082 3.1103
upperneck -7.1271 3.16938 -5.47772
head -1.80082 1.66225 -2.31344
rclavicle -1.51076e-014 9.54166e-015
rhumerus -49.5735 24.716 -87.9548
rradius 41.7891
rwrist -5.87367
rhand -0.266882 -14.105
rfingers 7.12502
rthumb 25.3347 -42.4423
lclavicle -1.51076e-014 9.54166e-015
lhumerus -48.2281 -3.93711 83.091
lradius 47.8458
lwrist 9.76676
lhand 2.54453 11.9911
lfingers 7.12502
lthumb 28.0252 39.9183
rfemur -1.19185 11.0955 24.5929
rtibia 17.7936
rfoot -17.6962 -7.08044
rtoes -13.0352
lfemur -21.8008 -3.07172 -11.6632
ltibia 30.6337
lfoot -16.595 -9.27956
ltoes -2.51253
278
root -37.8903 17.6913 -2.63139 -16.1345 81.9509 -20.8459
lowerback 17.0017 -0.689582 1.04284
upperback 7.33687 -0.271593 2.03308
thorax -1.70292 0.0228843 1.59103
lowerneck -1.76788 2.50852 3.13909
upperneck -7.11525 3.16955 -5.4853
head -1.79696 1.66155 -2.32093
rclavicle 1.59028e-015 3.71727e-014
rhumerus -49.5897 24.6884 -87.9687
rradius 41.7921
rwrist -5.87142
rhand -0.264575 -14.118
rfingers 7.12502
rthumb 25.3369 -42.4549
lclavicle 1.59028e-015 3.71727e-014
lhumerus -48.2341 -3.98003 83.0968
lradius 47.8289
lwrist 9.76288
lhand 2.56766 11.9805
lfingers 7.12502
lthumb 28.0474 39.9041
rfemur -1.1877 11.0595 24.5885
rtibia 17.825
rfoot -17.6663 -7.07085
rtoes -13.2303
lfemur -21.7869 -3.06312 -11.6716
ltibia 30.6431
lfoot -16.6064 -9.29899
ltoes -2.51421
279
root -37.8891 17.6903 -2.63053 -16.1257 81.9632 -20.8246
lowerback 16.9799 -0.690498 1.05389
upperback 7.33973 -0.272107 2.02506
thorax -1.68863 0.0229096 1.57622
lowerneck -1.76173 2.50789 3.17462
upperneck -7.10569 3.16826 -5.49664
head -1.79446 1.66009 -2.33101
rclavicle -3.18055e-015 -2.3059e-014
rhumerus -49.6095 24.6575 -87.9825
rradius 41.7895
rwrist -5.87181
rhand -0.264754 -14.0981
rfingers 7.12502
rthumb 25.3368 -42.435
lclavicle -3.18055e-015 -2.3059e-014
lhumerus -48.2407 -4.02313 83.1019
lradius 47.8149
lwrist 9.75787
lhand 2.59341 11.9688
lfingers 7.12502
lthumb 28.072 39.8884
rfemur -1.18574 11.0281 24.585
rtibia 17.8582
rfoot -17.6314 -7.07064
rtoes -13.4596
lfemur -21.777 -3.05546 -11.6801
ltibia 30.6538
lfoot -16.617 -9.31827
ltoes -2.51325
280
root -37.888 17.6898 -2.6297 -16.1129 81.9748 -20.7997
lowerback 16.9593 -0.690248 1.06386
upperback 7.34201 -0.271209 2.01791
thorax -1.67562 0.0235982 1.5627
lowerneck -1.75231 2.50532 3.22017
upperneck -7.10207 3.16385 -5.51775
head -1.79438 1.65713 -2.34633
rclavicle 3.43897e-014 1.19271e-015
rhumerus -49.6324 24.6259 -87.9965
rradius 41.7822
rwrist -5.87261
rhand -0.264824 -14.0603
rfingers 7.12502
rthumb 25.3367 -42.3972
lclavicle 3.43897e-014 1.19271e-015
lhumerus -48.2474 -4.06624 83.1073
lradius 47.803
lwrist 9.75124
lhand 2.61465 11.9577
lfingers 7.12502
lthumb 28.0923 39.8739
rfemur -1.17897 11.0493 24.588
rtibia 17.8881
rfoot -17.6099 -7.12255
rtoes -13.6526
lfemur -21.7658 -3.04942 -11.6883
ltibia 30.664
lfoot -16.6281 -9.33619
ltoes -2.51002
281
root -37.8868 17.689 -2.62897 -16.1008 81.9841 -20.7742
lowerback 16.94 -0.689038 1.07433
upperback 7.34437 -0.268897 2.01172
thorax -1.66319 0.0249966 1.54967
lowerneck -1.74463 2.49988 3.25534
upperneck -7.10375 3.15573 -5.53496
head -1.79607 1.65259 -2.35856
rclavicle 6.4605e-015 8.34896e-015
rhumerus -49.6597 24.5951 -88.0113
rradius 41.7757
rwrist -5.87331
rhand -0.261796 -14.0243
rfingers 7.12502
rthumb 25.3396 -42.3609
lclavicle 6.4605e-015 8.34896e-015
lhumerus -48.2547 -4.10697 83.1126
lradius 47.7938
lwrist 9.74368
lhand 2.63002 11.9582
lfingers 7.12502
lthumb 28.107 39.872
rfemur -1.16859 11.0449 24.5883
rtibia 17.9099
rfoot -17.5894 -7.1421
rtoes -13.7906
lfemur -21.7517 -3.04369 -11.6958
ltibia 30.6722
lfoot -16.6375 -9.35194
ltoes -2.5035
282
root -37.8857 17.6884 -2.62827 -16.0857 81.9918 -20.7448
lowerback 16.9226 -0.686962 1.08358
upperback 7.34698 -0.265519 2.00656
thorax -1.65149 0.0269063 1.53825
lowerneck -1.74162 2.4904 3.27441
upperneck -7.11233 3.14245 -5.5444
head -1.79971 1.6458 -2.36534
rclavicle 8.94531e-016 -8.74653e-015
rhumerus -49.6898 24.568 -88.0284
rradius 41.7711
rwrist -5.87047
rhand -0.256156 -14.0037
rfingers 7.12502
rthumb 25.345 -42.3395
lclavicle 8.94531e-016 -8.74653e-015
lhumerus -48.2608 -4.14386 83.1165
lradius 47.7866
lwrist 9.73608
lhand 2.64338 11.9567
lfingers 7.12502
lthumb 28.1197 39.8684
rfemur -1.15198 11.0491 24.5897
rtibia 17.9218
rfoot -17.5659 -7.16803
rtoes -13.9315
lfemur -21.7352 -3.03899 -11.7035
ltibia 30.6761
lfoot -16.6436 -9.36576
ltoes -2.49953
283
root -37.8846 17.6879 -2.62763 -16.0583 81.9979 -20.7013
lowerback 16.9095 -0.684408 1.09162
upperback 7.34903 -0.261578 2.00114
thorax -1.64265 0.0290832 1.52717
lowerneck -1.7345 2.48135 3.29427
upperneck -7.12575 3.12967 -5.5549
head -1.8056 1.63937 -2.37281
rclavicle -1.92821e-014 1.55052e-014
rhumerus -49.7246 24.544 -88.0489
rradius 41.7698
rwrist -5.86113
rhand -0.247937 -14.001
rfingers 7.12502
rthumb 25.3529 -42.3357
lclavicle -1.92821e-014 1.55052e-014
lhumerus -48.2692 -4.17799 83.1186
lradius 47.7834
lwrist 9.73059
lhand 2.64967 11.9544
lfingers 7.12502
lthumb 28.1257 39.8652
rfemur -1.13384 11.0651 24.591
rtibia 17.9351
rfoot -17.5478 -7.20472
rtoes -14.0514
lfemur -21.7148 -3.03596 -11.7122
ltibia 30.68
lfoot -16.6506 -9.37723
ltoes -2.48404
284
root -37.8835 17.6876 -2.627 -16.0268 82.0037 -20.6522
lowerback 16.8989 -0.681012 1.09763
upperback 7.35146 -0.256689 1.99677
thorax -1.63468 0.0317036 1.5182
lowerneck -1.72973 2.47438 3.31146
upperneck -7.13735 3.11983 -5.56275
head -1.81042 1.63439 -2.37885
rclavicle 3.47873e-015 -3.12092e-014
rhumerus -49.7592 24.5224 -88.0703
rradius 41.7667
rwrist -5.84941
rhand -0.240027 -14.0059
rfingers 7.12502
rthumb 25.3604 -42.3395
lclavicle 3.47873e-015 -3.12092e-014
lhumerus -48.276 -4.20837 83.1195
lradius 47.7819
lwrist 9.72802
lhand 2.64956 11.9643
lfingers 7.12502
lthumb 28.1256 39.875
rfemur -1.11463 11.0831 24.5922
rtibia 17.9493
rfoot -17.5363 -7.24388
rtoes -14.1616
lfemur -21.6927 -3.03107 -11.7221
ltibia 30.6832
lfoot -16.6569 -9.38994
ltoes -2.46817
285
root -37.8827 17.687 -2.62644 -15.9901 82.0083 -20.5974
lowerback 16.8915 -0.678024 1.10455
upperback 7.35274 -0.252168 1.99138
thorax -1.62964 0.0341569 1.50774
lowerneck -1.72355 2.46927 3.3282
upperneck -7.14778 3.11258 -5.56926
head -1.81499 1.63066 -2.38437
rclavicle 9.54166e-015 4.37326e-015
rhumerus -49.7962 24.5014 -88.0944
rradius 41.7614
rwrist -5.83075
rhand -0.233447 -14.005
rfingers 7.12502
rthumb 25.3668 -42.3377
lclavicle 9.54166e-015 4.37326e-015
lhumerus -48.2835 -4.23559 83.1167
lradius 47.7818
lwrist 9.72932
lhand 2.64633 11.9686
lfingers 7.12502
lthumb 28.1225 39.8799
rfemur -1.10096 11.0622 24.5873
rtibia 17.9695
rfoot -17.5267 -7.23929
rtoes -14.2391
lfemur -21.6708 -3.02899 -11.7319
ltibia 30.6874
lfoot -16.664 -9.39875
ltoes -2.44902
286
root -37.8821 17.6863 -2.6259 -15.9493 82.0139 -20.5397
lowerback 16.8872 -0.675878 1.11145
upperback 7.35191 -0.248752 1.98537
thorax -1.62843 0.0360292 1.49687
lowerneck -1.71631 2.46568 3.3438
upperneck -7.15574 3.10752 -5.57377
head -1.81889 1.62799 -2.389
rclavicle -1.35174e-014 -1.21259e-014
rhumerus -49.8336 24.4807 -88.1205
rradius 41.7498
rwrist -5.80997
rhand -0.231383 -13.9857
rfingers 7.12502
rthumb 25.3687 -42.3181
lclavicle -1.35174e-014 -1.21259e-014
lhumerus -48.2924 -4.25999 83.1104
lradius 47.7826
lwrist 9.73302
lhand 2.64148 11.9703
lfingers 7.12502
lthumb 28.1179 39.8823
rfemur -1.09627 11.0158 24.5779
rtibia 18.0007
rfoot -17.5285 -7.20722
rtoes -14.2734
lfemur -21.6543 -3.02494 -11.743
ltibia 30.696
lfoot -16.6732 -9.40849
ltoes -2.43092
287
root -37.8817 17.6855 -2.62539 -15.9013 82.0192 -20.4769
lowerback 16.8824 -0.672742 1.11698
upperback 7.34955 -0.244341 1.97956
thorax -1.62858 0.0383177 1.4868
lowerneck -1.70482 2.46248 3.36164
upperneck -7.16244 3.10304 -5.57789
head -1.82307 1.62554 -2.39397
rclavicle -2.38542e-015 -1.8487e-014
rhumerus -49.8728 24.4574 -88.1456
rradius 41.7367
rwrist -5.78717
rhand -0.228409 -13.9542
rfingers 7.12502
rthumb 25.3716 -42.2862
lclavicle -2.38542e-015 -1.8487e-014
lhumerus -48.301 -4.28259 83.1026
lradius 47.7835
lwrist 9.73754
lhand 2.63169 11.9774
lfingers 7.12502
lthumb 28.1086 39.891
rfemur -1.10368 10.959 24.5655
rtibia 18.0486
rfoot -17.5396 -7.16442
rtoes -14.2903
lfemur -21.6452 -3.02132 -11.755
ltibia 30.7123
lfoot -16.6856 -9.41553
ltoes -2.418
